<svg width="26" height="26" viewBox="0 0 26 26" fill="none" xmlns="http://www.w3.org/2000/svg">
<path d="M11.6668 11.6681L5.00102 5.00235M3.66786 7.00208L7.00075 3.66919L3.00128 1.66946L1.66812 3.00261L3.66786 7.00208ZM23.6319 8.96849C24.2719 8.329 24.7123 7.51721 24.8993 6.63196C25.0863 5.74672 25.0118 4.8262 24.6851 3.98248L22.7893 5.87823H20.123V3.21192L22.0188 1.31617C21.175 0.988669 20.2542 0.913639 19.3685 1.10022C18.4829 1.2868 17.6706 1.72695 17.0306 2.36702C16.3907 3.00709 15.9507 3.81947 15.7644 4.70517C15.578 5.59088 15.6532 6.51167 15.9809 7.35537L7.35537 15.9822C6.51167 15.6545 5.59088 15.5793 4.70517 15.7657C3.81947 15.9521 3.00709 16.392 2.36702 17.032C1.72695 17.6719 1.2868 18.4842 1.10022 19.3698C0.913639 20.2555 0.988669 21.1763 1.31617 22.0201L3.21059 20.1243H5.8769V22.7907L3.98115 24.6864C4.82471 25.0139 5.7453 25.089 6.63081 24.9027C7.51631 24.7163 8.32852 24.2765 8.96853 23.6368C9.60853 22.9971 10.0487 22.185 10.2355 21.2996C10.4222 20.4142 10.3475 19.4936 10.0204 18.6499L18.6485 10.0217C19.4919 10.3479 20.4119 10.422 21.2966 10.235C22.1813 10.048 22.9926 9.60803 23.6319 8.96849Z" stroke="#39B269" stroke-width="1.5" stroke-linecap="round" stroke-linejoin="round"/>
<path d="M12.7305 16.334L20.2015 23.805C20.3686 23.9725 20.5672 24.1054 20.7858 24.196C21.0044 24.2867 21.2387 24.3333 21.4753 24.3333C21.7119 24.3333 21.9463 24.2867 22.1648 24.196C22.3834 24.1054 22.582 23.9725 22.7491 23.805L23.805 22.7491C23.9725 22.582 24.1054 22.3834 24.196 22.1648C24.2867 21.9463 24.3333 21.7119 24.3333 21.4753C24.3333 21.2387 24.2867 21.0044 24.196 20.7858C24.1054 20.5672 23.9725 20.3686 23.805 20.2015L16.334 12.7305" stroke="#39B269" stroke-width="1.5" stroke-linecap="round" stroke-linejoin="round"/>
</svg>
