<svg width="30" height="30" viewBox="0 0 30 30" fill="none" xmlns="http://www.w3.org/2000/svg">
<g filter="url(#filter0_d_90_2116)">
<path d="M5 10.5027C5 6.73169 5 4.84569 6.172 3.67469C7.344 2.50369 9.229 2.50269 13 2.50269H17C20.771 2.50269 22.657 2.50269 23.828 3.67469C24.999 4.84669 25 6.73169 25 10.5027V12.5027C25 16.2737 25 18.1597 23.828 19.3307C22.656 20.5017 20.771 20.5027 17 20.5027H13C9.229 20.5027 7.343 20.5027 6.172 19.3307C5.001 18.1587 5 16.2737 5 12.5027V10.5027Z" stroke="#39B269" stroke-width="1.5" shape-rendering="crispEdges"/>
</g>
<path d="M10 2.50269V1.00269M20 2.50269V1.00269M5.5 7.50269H24.5" stroke="#39B269" stroke-width="1.5" stroke-linecap="round"/>
<path d="M20.5 15.5027C20.5 15.6353 20.4473 15.7625 20.3536 15.8562C20.2598 15.95 20.1326 16.0027 20 16.0027C19.8674 16.0027 19.7402 15.95 19.6464 15.8562C19.5527 15.7625 19.5 15.6353 19.5 15.5027C19.5 15.3701 19.5527 15.2429 19.6464 15.1491C19.7402 15.0554 19.8674 15.0027 20 15.0027C20.1326 15.0027 20.2598 15.0554 20.3536 15.1491C20.4473 15.2429 20.5 15.3701 20.5 15.5027ZM20.5 11.5027C20.5 11.6353 20.4473 11.7625 20.3536 11.8562C20.2598 11.95 20.1326 12.0027 20 12.0027C19.8674 12.0027 19.7402 11.95 19.6464 11.8562C19.5527 11.7625 19.5 11.6353 19.5 11.5027C19.5 11.3701 19.5527 11.2429 19.6464 11.1491C19.7402 11.0554 19.8674 11.0027 20 11.0027C20.1326 11.0027 20.2598 11.0554 20.3536 11.1491C20.4473 11.2429 20.5 11.3701 20.5 11.5027ZM15.5 15.5027C15.5 15.6353 15.4473 15.7625 15.3536 15.8562C15.2598 15.95 15.1326 16.0027 15 16.0027C14.8674 16.0027 14.7402 15.95 14.6464 15.8562C14.5527 15.7625 14.5 15.6353 14.5 15.5027C14.5 15.3701 14.5527 15.2429 14.6464 15.1491C14.7402 15.0554 14.8674 15.0027 15 15.0027C15.1326 15.0027 15.2598 15.0554 15.3536 15.1491C15.4473 15.2429 15.5 15.3701 15.5 15.5027ZM15.5 11.5027C15.5 11.6353 15.4473 11.7625 15.3536 11.8562C15.2598 11.95 15.1326 12.0027 15 12.0027C14.8674 12.0027 14.7402 11.95 14.6464 11.8562C14.5527 11.7625 14.5 11.6353 14.5 11.5027C14.5 11.3701 14.5527 11.2429 14.6464 11.1491C14.7402 11.0554 14.8674 11.0027 15 11.0027C15.1326 11.0027 15.2598 11.0554 15.3536 11.1491C15.4473 11.2429 15.5 11.3701 15.5 11.5027ZM10.5 15.5027C10.5 15.6353 10.4473 15.7625 10.3536 15.8562C10.2598 15.95 10.1326 16.0027 10 16.0027C9.86739 16.0027 9.74021 15.95 9.64645 15.8562C9.55268 15.7625 9.5 15.6353 9.5 15.5027C9.5 15.3701 9.55268 15.2429 9.64645 15.1491C9.74021 15.0554 9.86739 15.0027 10 15.0027C10.1326 15.0027 10.2598 15.0554 10.3536 15.1491C10.4473 15.2429 10.5 15.3701 10.5 15.5027ZM10.5 11.5027C10.5 11.6353 10.4473 11.7625 10.3536 11.8562C10.2598 11.95 10.1326 12.0027 10 12.0027C9.86739 12.0027 9.74022 11.95 9.64645 11.8562C9.55268 11.7625 9.5 11.6353 9.5 11.5027C9.5 11.3701 9.55268 11.2429 9.64645 11.1491C9.74022 11.0554 9.86739 11.0027 10 11.0027C10.1326 11.0027 10.2598 11.0554 10.3536 11.1491C10.4473 11.2429 10.5 11.3701 10.5 11.5027Z" fill="black" stroke="#39B269"/>
<defs>
<filter id="filter0_d_90_2116" x="0.25" y="1.75269" width="29.5" height="27.5" filterUnits="userSpaceOnUse" color-interpolation-filters="sRGB">
<feFlood flood-opacity="0" result="BackgroundImageFix"/>
<feColorMatrix in="SourceAlpha" type="matrix" values="0 0 0 0 0 0 0 0 0 0 0 0 0 0 0 0 0 0 127 0" result="hardAlpha"/>
<feOffset dy="4"/>
<feGaussianBlur stdDeviation="2"/>
<feComposite in2="hardAlpha" operator="out"/>
<feColorMatrix type="matrix" values="0 0 0 0 0 0 0 0 0 0 0 0 0 0 0 0 0 0 0.25 0"/>
<feBlend mode="normal" in2="BackgroundImageFix" result="effect1_dropShadow_90_2116"/>
<feBlend mode="normal" in="SourceGraphic" in2="effect1_dropShadow_90_2116" result="shape"/>
</filter>
</defs>
</svg>
