<svg width="100" height="50" viewBox="0 0 100 50" fill="none" xmlns="http://www.w3.org/2000/svg">
<path d="M0 10C0 4.47715 4.47715 0 10 0H90C95.5228 0 100 4.47715 100 10V40C100 45.5228 95.5229 50 90 50H10C4.47716 50 0 45.5228 0 40V10Z" fill="#E2FFF5"/>
<path d="M12.5 28.5664L8.86456 30.8595C8.70395 30.9666 8.53605 31.0124 8.36085 30.9971C8.18565 30.9818 8.03235 30.9207 7.90094 30.8137C7.76954 30.7067 7.66734 30.5729 7.59434 30.4124C7.52134 30.2519 7.50674 30.0722 7.55054 29.8735L8.51415 25.5395L5.29481 22.6272C5.14881 22.4896 5.05756 22.3329 5.02106 22.1571C4.98456 21.9813 4.99551 21.8093 5.05391 21.6411C5.11231 21.473 5.19991 21.3354 5.31671 21.2284C5.43351 21.1213 5.59412 21.0526 5.79852 21.022L10.0472 20.6321L11.6897 16.5504C11.7627 16.3669 11.8758 16.2293 12.0291 16.1376C12.1824 16.0459 12.3394 16 12.5 16C12.6606 16 12.8176 16.0459 12.9709 16.1376C13.1242 16.2293 13.2373 16.3669 13.3103 16.5504L14.9528 20.6321L19.2015 21.022C19.4059 21.0526 19.5665 21.1213 19.6833 21.2284C19.8001 21.3354 19.8877 21.473 19.9461 21.6411C20.0045 21.8093 20.0154 21.9813 19.9789 22.1571C19.9424 22.3329 19.8512 22.4896 19.7052 22.6272L16.4858 25.5395L17.4495 29.8735C17.4933 30.0722 17.4787 30.2519 17.4057 30.4124C17.3327 30.5729 17.2305 30.7067 17.0991 30.8137C16.9677 30.9207 16.8144 30.9818 16.6392 30.9971C16.4639 31.0124 16.296 30.9666 16.1354 30.8595L12.5 28.5664Z" fill="#FFCC00"/>
<path d="M31.5 28.5664L27.8646 30.8595C27.704 30.9666 27.5361 31.0124 27.3608 30.9971C27.1856 30.9818 27.0323 30.9207 26.9009 30.8137C26.7695 30.7067 26.6673 30.5729 26.5943 30.4124C26.5213 30.2519 26.5067 30.0722 26.5505 29.8735L27.5142 25.5395L24.2948 22.6272C24.1488 22.4896 24.0576 22.3329 24.0211 22.1571C23.9846 21.9813 23.9955 21.8093 24.0539 21.6411C24.1123 21.473 24.1999 21.3354 24.3167 21.2284C24.4335 21.1213 24.5941 21.0526 24.7985 21.022L29.0472 20.6321L30.6897 16.5504C30.7627 16.3669 30.8758 16.2293 31.0291 16.1376C31.1824 16.0459 31.3394 16 31.5 16C31.6606 16 31.8176 16.0459 31.9709 16.1376C32.1242 16.2293 32.2373 16.3669 32.3103 16.5504L33.9528 20.6321L38.2015 21.022C38.4059 21.0526 38.5665 21.1213 38.6833 21.2284C38.8001 21.3354 38.8877 21.473 38.9461 21.6411C39.0045 21.8093 39.0154 21.9813 38.9789 22.1571C38.9424 22.3329 38.8512 22.4896 38.7052 22.6272L35.4858 25.5395L36.4495 29.8735C36.4933 30.0722 36.4787 30.2519 36.4057 30.4124C36.3327 30.5729 36.2305 30.7067 36.0991 30.8137C35.9677 30.9207 35.8144 30.9818 35.6392 30.9971C35.4639 31.0124 35.296 30.9666 35.1354 30.8595L31.5 28.5664Z" fill="#FFCC00"/>
<path d="M50.5 28.5664L46.8646 30.8595C46.704 30.9666 46.5361 31.0124 46.3608 30.9971C46.1856 30.9818 46.0323 30.9207 45.9009 30.8137C45.7695 30.7067 45.6673 30.5729 45.5943 30.4124C45.5213 30.2519 45.5067 30.0722 45.5505 29.8735L46.5142 25.5395L43.2948 22.6272C43.1488 22.4896 43.0576 22.3329 43.0211 22.1571C42.9846 21.9813 42.9955 21.8093 43.0539 21.6411C43.1123 21.473 43.1999 21.3354 43.3167 21.2284C43.4335 21.1213 43.5941 21.0526 43.7985 21.022L48.0472 20.6321L49.6897 16.5504C49.7627 16.3669 49.8758 16.2293 50.0291 16.1376C50.1824 16.0459 50.3394 16 50.5 16C50.6606 16 50.8176 16.0459 50.9709 16.1376C51.1242 16.2293 51.2373 16.3669 51.3103 16.5504L52.9528 20.6321L57.2015 21.022C57.4059 21.0526 57.5665 21.1213 57.6833 21.2284C57.8001 21.3354 57.8877 21.473 57.9461 21.6411C58.0045 21.8093 58.0154 21.9813 57.9789 22.1571C57.9424 22.3329 57.8512 22.4896 57.7052 22.6272L54.4858 25.5395L55.4495 29.8735C55.4933 30.0722 55.4787 30.2519 55.4057 30.4124C55.3327 30.5729 55.2305 30.7067 55.0991 30.8137C54.9677 30.9207 54.8144 30.9818 54.6392 30.9971C54.4639 31.0124 54.296 30.9666 54.1354 30.8595L50.5 28.5664Z" fill="#FFCC00"/>
<path d="M69.5 28.5664L65.8646 30.8595C65.704 30.9666 65.5361 31.0124 65.3608 30.9971C65.1856 30.9818 65.0323 30.9207 64.9009 30.8137C64.7695 30.7067 64.6673 30.5729 64.5943 30.4124C64.5213 30.2519 64.5067 30.0722 64.5505 29.8735L65.5142 25.5395L62.2948 22.6272C62.1488 22.4896 62.0576 22.3329 62.0211 22.1571C61.9846 21.9813 61.9955 21.8093 62.0539 21.6411C62.1123 21.473 62.1999 21.3354 62.3167 21.2284C62.4335 21.1213 62.5941 21.0526 62.7985 21.022L67.0472 20.6321L68.6897 16.5504C68.7627 16.3669 68.8758 16.2293 69.0291 16.1376C69.1824 16.0459 69.3394 16 69.5 16C69.6606 16 69.8176 16.0459 69.9709 16.1376C70.1242 16.2293 70.2373 16.3669 70.3103 16.5504L71.9528 20.6321L76.2015 21.022C76.4059 21.0526 76.5665 21.1213 76.6833 21.2284C76.8001 21.3354 76.8877 21.473 76.9461 21.6411C77.0045 21.8093 77.0154 21.9813 76.9789 22.1571C76.9424 22.3329 76.8512 22.4896 76.7052 22.6272L73.4858 25.5395L74.4495 29.8735C74.4933 30.0722 74.4787 30.2519 74.4057 30.4124C74.3327 30.5729 74.2305 30.7067 74.0991 30.8137C73.9677 30.9207 73.8144 30.9818 73.6392 30.9971C73.4639 31.0124 73.296 30.9666 73.1354 30.8595L69.5 28.5664Z" fill="#FFCC00"/>
<path d="M88.5 28.5664L84.8646 30.8595C84.704 30.9666 84.5361 31.0124 84.3608 30.9971C84.1856 30.9818 84.0323 30.9207 83.9009 30.8137C83.7695 30.7067 83.6673 30.5729 83.5943 30.4124C83.5213 30.2519 83.5067 30.0722 83.5505 29.8735L84.5142 25.5395L81.2948 22.6272C81.1488 22.4896 81.0576 22.3329 81.0211 22.1571C80.9846 21.9813 80.9955 21.8093 81.0539 21.6411C81.1123 21.473 81.1999 21.3354 81.3167 21.2284C81.4335 21.1213 81.5941 21.0526 81.7985 21.022L86.0472 20.6321L87.6897 16.5504C87.7627 16.3669 87.8758 16.2293 88.0291 16.1376C88.1824 16.0459 88.3394 16 88.5 16C88.6606 16 88.8176 16.0459 88.9709 16.1376C89.1242 16.2293 89.2373 16.3669 89.3103 16.5504L90.9528 20.6321L95.2015 21.022C95.4059 21.0526 95.5665 21.1213 95.6833 21.2284C95.8001 21.3354 95.8877 21.473 95.9461 21.6411C96.0045 21.8093 96.0154 21.9813 95.9789 22.1571C95.9424 22.3329 95.8512 22.4896 95.7052 22.6272L92.4858 25.5395L93.4495 29.8735C93.4933 30.0722 93.4787 30.2519 93.4057 30.4124C93.3327 30.5729 93.2305 30.7067 93.0991 30.8137C92.9677 30.9207 92.8144 30.9818 92.6392 30.9971C92.4639 31.0124 92.296 30.9666 92.1354 30.8595L88.5 28.5664Z" fill="#FFCC00"/>
</svg>
