<svg width="60" height="60" viewBox="0 0 60 60" fill="none" xmlns="http://www.w3.org/2000/svg">
<path opacity="0.3" fill-rule="evenodd" clip-rule="evenodd" d="M30 60C46.5685 60 60 46.5685 60 30C60 13.4315 46.5685 0 30 0C13.4315 0 0 13.4315 0 30C0 46.5685 13.4315 60 30 60Z" fill="#FF9066"/>
<path d="M22.235 47V44.99H17.63V43.58L22.565 36.425H24.155V43.4H25.64V44.99H24.155V47H22.235ZM22.235 43.4V38.72H22.67L19.13 43.91V43.4H22.235ZM28.7191 48.995L27.9541 48.395C28.1741 48.175 28.3441 47.965 28.4641 47.765C28.5841 47.575 28.6691 47.38 28.7191 47.18C28.7791 46.98 28.8091 46.775 28.8091 46.565L29.2141 47H27.8041V44.915H29.9041V46.295C29.9041 46.635 29.8641 46.955 29.7841 47.255C29.7141 47.555 29.5941 47.845 29.4241 48.125C29.2541 48.415 29.0191 48.705 28.7191 48.995ZM33.0048 47L38.1198 37.37V38.03H32.5398V36.425H39.9048V37.865L35.1198 47H33.0048Z" fill="#202224"/>
<path d="M29.9885 26.7162L24.6756 29.9244C24.5195 30.0015 24.3746 30.0327 24.241 30.0181C24.1083 30.0025 23.979 29.9566 23.8531 29.8805C23.7263 29.8025 23.6306 29.6922 23.5662 29.5497C23.5018 29.4073 23.496 29.2517 23.5487 29.0828L24.9625 23.0674L20.2863 19.0132C20.1546 18.9059 20.0677 18.7776 20.0258 18.6283C19.9838 18.479 19.9931 18.3361 20.0536 18.1995C20.1141 18.0629 20.1946 17.9507 20.2951 17.8628C20.3966 17.778 20.5332 17.7204 20.7049 17.6901L26.8754 17.1515L29.2816 11.4552C29.348 11.2942 29.4436 11.1781 29.5685 11.1068C29.6934 11.0356 29.8334 11 29.9885 11C30.1437 11 30.2842 11.0356 30.4101 11.1068C30.5359 11.1781 30.6311 11.2942 30.6955 11.4552L33.1016 17.1515L39.2707 17.6901C39.4434 17.7194 39.5805 17.7775 39.682 17.8643C39.7835 17.9502 39.8645 18.0619 39.925 18.1995C39.9845 18.3361 39.9933 18.479 39.9513 18.6283C39.9093 18.7776 39.8225 18.9059 39.6908 19.0132L35.0146 23.0674L36.4284 29.0828C36.483 29.2497 36.4777 29.4048 36.4123 29.5483C36.3469 29.6917 36.2508 29.802 36.124 29.8791C35.9991 29.9571 35.8698 30.0035 35.7361 30.0181C35.6034 30.0327 35.459 30.0015 35.3029 29.9244L29.9885 26.7162Z" fill="#FFCC00"/>
</svg>
