<svg width="16" height="20" viewBox="0 0 16 20" fill="none" xmlns="http://www.w3.org/2000/svg">
<path d="M1.74322e-07 0H16V3C16.0003 4.42874 15.618 5.83149 14.8927 7.06248C14.1675 8.29347 13.1258 9.30778 11.876 10C13.1258 10.6922 14.1675 11.7065 14.8927 12.9375C15.618 14.1685 16.0003 15.5713 16 17V20H1.74322e-07V17C-0.000298042 15.5713 0.382033 14.1685 1.10726 12.9375C1.83249 11.7065 2.87415 10.6922 4.124 10C2.87415 9.30778 1.83249 8.29347 1.10726 7.06248C0.382033 5.83149 -0.000298042 4.42874 1.74322e-07 3V0ZM14 3V2H2V3C2 3.892 2.195 4.739 2.544 5.5H13.456C13.806 4.739 14 3.892 14 3ZM7.002 11.083C5.60339 11.3189 4.33358 12.0427 3.41789 13.1259C2.50221 14.2091 1.99986 15.5816 2 17V18H3.1C3.29732 17.0394 3.77222 16.1578 4.46584 15.4645C5.15946 14.7713 6.04128 14.2968 7.002 14.1V11.083ZM8.998 14.1C9.95872 14.2968 10.8405 14.7713 11.5342 15.4645C12.2278 16.1578 12.7027 17.0394 12.9 18H14V17C14.0001 15.5816 13.4978 14.2091 12.5821 13.1259C11.6664 12.0427 10.3966 11.3189 8.998 11.083V14.1Z" fill="#F1963A"/>
</svg>
