<svg width="114" height="102" viewBox="0 0 114 102" fill="none" xmlns="http://www.w3.org/2000/svg">
<mask id="mask0_52_2110" style="mask-type:luminance" maskUnits="userSpaceOnUse" x="0" y="0" width="70" height="102">
<path d="M0.257812 0.641602H69.1474V101.581H0.257812V0.641602Z" fill="white"/>
</mask>
<g mask="url(#mask0_52_2110)">
<path d="M44.266 0.655396H57.2442C58.7254 0.655396 59.9285 1.85267 59.9342 3.33392C59.9342 3.34352 59.9342 3.35119 59.9361 3.35887L60.5482 12.1389C60.5616 12.3289 60.696 12.4881 60.8782 12.5361C63.6757 13.2671 66.3523 14.2936 68.8754 15.5811C68.8774 15.5811 68.8793 15.583 68.8793 15.5849C69.121 15.7096 69.1901 16.0205 69.027 16.2373L62.8814 24.3093C62.7586 24.4705 62.5398 24.5281 62.3556 24.4475C61.3061 23.9908 60.224 23.5936 59.1169 23.2617C57.697 22.8357 56.2311 22.5172 54.7307 22.3119C53.8308 22.1891 52.9194 22.1066 51.9946 22.0683C51.584 22.051 51.1715 22.0414 50.7532 22.0414C49.9569 22.0414 49.1664 22.074 48.3836 22.1373C39.8606 22.8242 32.3738 27.1836 27.5079 33.6304C23.8298 38.504 21.6482 44.571 21.6482 51.1483C21.6482 67.2252 34.6801 80.2552 50.7532 80.2552C54.8784 80.2552 58.8003 79.3976 62.3556 77.8511C62.5418 77.7705 62.7586 77.828 62.8814 77.9892L63.457 78.7471L69.0232 86.0574C69.1882 86.2742 69.1172 86.5889 68.8754 86.7155C68.8467 86.7309 68.8179 86.7462 68.7872 86.7616C68.7488 86.7827 68.7085 86.8019 68.6701 86.8211C67.4038 87.4581 66.0991 88.0299 64.7617 88.5306C63.4973 89.0046 62.2021 89.4152 60.8782 89.7625C60.696 89.8104 60.5616 89.9697 60.5482 90.1577L59.9361 98.9397C59.9342 98.9473 59.9342 98.955 59.9342 98.9627C59.9285 100.444 58.7254 101.643 57.2442 101.643H44.266C42.7828 101.643 41.5817 100.444 41.576 98.9627C41.576 98.955 41.574 98.9473 41.574 98.9397L40.96 90.1577C40.9466 89.9697 40.8142 89.8104 40.63 89.7625C37.0727 88.8319 33.7092 87.4235 30.6124 85.6084C30.4474 85.5125 30.2421 85.5317 30.0982 85.6564L23.4518 91.4337C23.446 91.4394 23.4422 91.4433 23.4364 91.4509C22.383 92.4928 20.6869 92.489 19.6393 91.4413L10.4621 82.2641C9.41445 81.2165 9.41061 79.5184 10.4544 78.467C10.4582 78.4631 10.464 78.4574 10.4697 78.4497L16.247 71.8052C16.3717 71.6613 16.389 71.4541 16.295 71.291C14.4799 68.1923 13.0715 64.8307 12.1409 61.2734C12.093 61.0892 11.9337 60.9568 11.7457 60.9434L2.96372 60.3294C2.95605 60.3294 2.94837 60.3294 2.9407 60.3294C1.45945 60.3217 0.260254 59.1206 0.260254 57.6374V44.6592C0.260254 43.176 1.45945 41.9749 2.9407 41.9692C2.94837 41.9692 2.95605 41.9692 2.96372 41.9673L11.7457 41.3552C11.9337 41.3418 12.093 41.2074 12.1409 41.0233C13.0715 37.4679 14.4799 34.1044 16.295 31.0056C16.389 30.8425 16.3717 30.6372 16.247 30.4933L15.2723 29.3709L10.4697 23.8469C10.464 23.8412 10.4582 23.8354 10.4544 23.8296C9.41061 22.7782 9.41445 21.0801 10.4621 20.0325L19.6393 10.8553C20.6869 9.80767 22.383 9.80383 23.4364 10.8476C23.4422 10.8534 23.446 10.8572 23.4518 10.863L30.0982 16.6421C30.2421 16.7649 30.4474 16.7841 30.6124 16.6882C33.2871 15.1206 36.1613 13.8562 39.1891 12.9428C39.6649 12.797 40.1465 12.6627 40.63 12.5361C40.8142 12.4881 40.9466 12.3289 40.96 12.1389L41.0521 10.838L41.127 9.75203L41.3553 6.49788L41.574 3.35887C41.574 3.35119 41.576 3.34352 41.576 3.33392C41.5817 1.85267 42.7828 0.655396 44.266 0.655396Z" fill="#39B269"/>
</g>
<path d="M41.9037 58.5182H38.9335V46.9675H35.1191V44.4885H45.7105V46.9675H41.9037V58.5182Z" fill="#737373"/>
<path d="M47.5161 45.017C47.5161 44.0653 48.0457 43.5895 49.1048 43.5895C50.1678 43.5895 50.7012 44.0653 50.7012 45.017C50.7012 45.4737 50.5669 45.8286 50.3021 46.0838C50.0354 46.3352 49.6363 46.4599 49.1048 46.4599C48.0457 46.4599 47.5161 45.9802 47.5161 45.017ZM50.563 58.5171H47.6389V47.7876H50.563V58.5171Z" fill="#737373"/>
<path d="M57.9936 58.7101C54.6512 58.7101 52.9819 56.8797 52.9819 53.2149C52.9819 51.3883 53.4348 49.9953 54.3404 49.0321C55.2499 48.0708 56.5527 47.5892 58.2469 47.5892C59.4902 47.5892 60.6031 47.8329 61.5855 48.3183L60.7259 50.5824C60.2654 50.3982 59.8356 50.2486 59.4365 50.1296C59.0412 50.0126 58.646 49.9531 58.2469 49.9531C56.7273 49.9531 55.9675 51.0333 55.9675 53.1919C55.9675 55.291 56.7273 56.3386 58.2469 56.3386C58.8091 56.3386 59.331 56.2657 59.8126 56.116C60.2922 55.9625 60.7738 55.7284 61.2554 55.4099V57.9119C60.7796 58.2151 60.298 58.4223 59.8126 58.5336C59.331 58.6506 58.7246 58.7101 57.9936 58.7101Z" fill="#737373"/>
<path d="M75.6019 51.3729C75.6019 53.6811 74.9438 55.4482 73.6294 56.6762C72.319 57.9042 70.4233 58.5182 67.9424 58.5182H63.9668V44.4885H68.3722C70.6593 44.4885 72.4341 45.0948 73.6985 46.3075C74.9668 47.5163 75.6019 49.2047 75.6019 51.3729ZM72.5166 51.4496C72.5166 48.4372 71.185 46.9291 68.5257 46.9291H66.9446V56.0622H68.2187C71.0833 56.0622 72.5166 54.5253 72.5166 51.4496Z" fill="#39B269"/>
<path d="M84.2652 47.5892C84.6643 47.5892 84.9943 47.618 85.2553 47.6737L85.0327 50.4213C84.7967 50.356 84.5108 50.3215 84.1731 50.3215C83.2368 50.3215 82.5077 50.5632 81.9858 51.0429C81.4639 51.5245 81.2029 52.198 81.2029 53.0614V58.5182H78.2788V47.7888H80.4968L80.9266 49.5924H81.0725C81.4044 48.9937 81.8515 48.5102 82.4156 48.1418C82.9835 47.7734 83.5994 47.5892 84.2652 47.5892Z" fill="#39B269"/>
<path d="M87.0776 45.017C87.0776 44.0653 87.6072 43.5895 88.6663 43.5895C89.7293 43.5895 90.2627 44.0653 90.2627 45.017C90.2627 45.4737 90.1284 45.8286 89.8636 46.0838C89.5969 46.3352 89.1978 46.4599 88.6663 46.4599C87.6072 46.4599 87.0776 45.9802 87.0776 45.017ZM90.1246 58.5171H87.2004V47.7876H90.1246V58.5171Z" fill="#39B269"/>
<path d="M95.7518 58.5197L91.6611 47.7903H94.7234L96.7956 53.9071C97.0259 54.6804 97.1678 55.4114 97.2254 56.1022H97.2868C97.3175 55.4882 97.4595 54.7571 97.7166 53.9071L99.7811 47.7903H102.836L98.7527 58.5197H95.7518Z" fill="#39B269"/>
<path d="M108.815 49.6691C108.195 49.6691 107.71 49.8667 107.357 50.2601C107.004 50.6553 106.8 51.2118 106.75 51.9332H110.856C110.845 51.2118 110.657 50.6553 110.288 50.2601C109.924 49.8667 109.433 49.6691 108.815 49.6691ZM109.229 58.7101C107.499 58.7101 106.148 58.2343 105.177 57.2826C104.204 56.3271 103.719 54.9763 103.719 53.2303C103.719 51.4343 104.166 50.0452 105.062 49.0628C105.962 48.0804 107.205 47.5892 108.792 47.5892C110.311 47.5892 111.493 48.0229 112.338 48.8863C113.182 49.7516 113.604 50.9431 113.604 52.4628V53.8826H106.681C106.716 54.7173 106.965 55.3677 107.426 55.832C107.886 56.2983 108.531 56.5304 109.36 56.5304C110.004 56.5304 110.613 56.4652 111.186 56.3309C111.764 56.1985 112.368 55.9836 112.998 55.6862V57.9503C112.485 58.2074 111.939 58.3954 111.355 58.5182C110.772 58.6449 110.062 58.7101 109.229 58.7101Z" fill="#39B269"/>
</svg>
