<svg width="25" height="22" viewBox="0 0 25 22" fill="none" xmlns="http://www.w3.org/2000/svg">
<path fill-rule="evenodd" clip-rule="evenodd" d="M20.5341 14.5945C21.4907 13.8323 22.3829 13.0101 23.2036 12.1345C23.7345 11.5681 24 11.2861 24 10.8553C24 10.4245 23.7345 10.1425 23.2036 9.57607C21.2607 7.50727 16.9751 3.65527 12 3.65527C10.8506 3.65527 9.73957 3.86047 8.68461 4.20247L12.1697 7.25887C13.1988 7.29604 14.1744 7.67116 14.9029 8.3098C15.6314 8.94844 16.0594 9.80392 16.1022 10.7065L20.5341 14.5945ZM8.43284 9.07207C7.98681 9.75772 7.81012 10.5529 7.92996 11.3353C8.0498 12.1176 8.45953 12.8438 9.09607 13.4019C9.73261 13.96 10.5607 14.3191 11.4528 14.4241C12.3449 14.529 13.2516 14.3738 14.0333 13.9825L17.1818 16.7461C15.6068 17.5213 13.8513 18.0553 12 18.0553C7.02486 18.0553 2.73934 14.2033 0.796351 12.1345C0.26545 11.5681 0 11.2861 0 10.8553C0 10.4245 0.26545 10.1425 0.796351 9.57607C1.71722 8.59567 3.16625 7.21207 4.9642 6.03127L8.43284 9.07207Z" fill="#737373" fill-opacity="0.7"/>
<path d="M2.5 1.30811L23.7652 19.9572" stroke="#737373" stroke-opacity="0.7" stroke-width="2"/>
</svg>
