<svg width="24" height="16" viewBox="0 0 24 16" fill="none" xmlns="http://www.w3.org/2000/svg">
<path d="M23.786 7.27387C23.6864 7.15147 21.3114 4.24576 18.0341 2.25958C16.3348 1.22793 14.1915 0.660156 12.0002 0.660156C9.80891 0.660156 7.6668 1.22793 5.96392 2.25958C2.68657 4.24576 0.314058 7.15147 0.214453 7.27387C0.0748291 7.44615 0 7.6509 0 7.86067C0 8.07044 0.0748291 8.27519 0.214453 8.44747C0.314058 8.56987 2.68657 11.4756 5.96392 13.4618C7.6668 14.4924 9.81011 15.0602 12.0002 15.0602C14.1903 15.0602 16.3348 14.4924 18.0341 13.4607C21.3114 11.4746 23.6864 8.56884 23.786 8.44644C23.9253 8.27426 24 8.06971 24 7.86016C24 7.6506 23.9253 7.44605 23.786 7.27387ZM12.0002 11.4602C9.6793 11.4602 7.80001 9.8453 7.80001 7.86016C7.80001 5.8709 9.6793 4.26016 12.0002 4.26016C14.3163 4.26016 16.2004 5.8709 16.2004 7.86016C16.2004 9.8453 14.3163 11.4602 12.0002 11.4602ZM14.4003 7.86016C14.4003 8.99364 13.3227 9.9173 12.0002 9.9173C11.5255 9.9173 11.0615 9.79665 10.6668 9.57061C10.2721 9.34457 9.96445 9.02328 9.78279 8.64739C9.60113 8.2715 9.5536 7.85787 9.64621 7.45883C9.73882 7.05978 9.96741 6.69323 10.3031 6.40554C10.6387 6.11784 11.0664 5.92192 11.532 5.84254C11.9975 5.76316 12.4801 5.8039 12.9187 5.9596C13.3573 6.1153 13.7321 6.37897 13.9958 6.71727C14.2596 7.05556 14.4003 7.45329 14.4003 7.86016Z" fill="#737373" fill-opacity="0.7"/>
</svg>
