<svg width="18" height="16" viewBox="0 0 18 16" fill="none" xmlns="http://www.w3.org/2000/svg">
<path d="M3 14V14.5C3 14.9167 2.85417 15.2708 2.5625 15.5625C2.27083 15.8542 1.91667 16 1.5 16C1.08333 16 0.729167 15.8542 0.4375 15.5625C0.145833 15.2708 0 14.9167 0 14.5V7.35C0 7.23333 0.00833333 7.11667 0.025 7C0.0416667 6.88333 0.0666667 6.775 0.1 6.675L1.975 1.35C2.10833 0.95 2.35 0.625 2.7 0.375C3.05 0.125 3.44167 0 3.875 0H14.125C14.5583 0 14.95 0.125 15.3 0.375C15.65 0.625 15.8917 0.95 16.025 1.35L17.9 6.675C17.9333 6.775 17.9583 6.88333 17.975 7C17.9917 7.11667 18 7.23333 18 7.35V14.5C18 14.9167 17.8542 15.2708 17.5625 15.5625C17.2708 15.8542 16.9167 16 16.5 16C16.0833 16 15.7292 15.8542 15.4375 15.5625C15.1458 15.2708 15 14.9167 15 14.5V14H3ZM2.8 5H15.2L14.15 2H3.85L2.8 5ZM4.5 11C4.91667 11 5.27083 10.8542 5.5625 10.5625C5.85417 10.2708 6 9.91667 6 9.5C6 9.08333 5.85417 8.72917 5.5625 8.4375C5.27083 8.14583 4.91667 8 4.5 8C4.08333 8 3.72917 8.14583 3.4375 8.4375C3.14583 8.72917 3 9.08333 3 9.5C3 9.91667 3.14583 10.2708 3.4375 10.5625C3.72917 10.8542 4.08333 11 4.5 11ZM13.5 11C13.9167 11 14.2708 10.8542 14.5625 10.5625C14.8542 10.2708 15 9.91667 15 9.5C15 9.08333 14.8542 8.72917 14.5625 8.4375C14.2708 8.14583 13.9167 8 13.5 8C13.0833 8 12.7292 8.14583 12.4375 8.4375C12.1458 8.72917 12 9.08333 12 9.5C12 9.91667 12.1458 10.2708 12.4375 10.5625C12.7292 10.8542 13.0833 11 13.5 11Z" fill="#737373"/>
</svg>
