<svg width="16" height="19" viewBox="0 0 16 19" fill="none" xmlns="http://www.w3.org/2000/svg">
<path d="M8 19C7.71667 19 7.47917 18.9042 7.2875 18.7125C7.09583 18.5208 7 18.2833 7 18V16H1C0.716667 16 0.479167 15.9042 0.2875 15.7125C0.0958333 15.5208 0 15.2833 0 15C0 14.7167 0.0958333 14.4792 0.2875 14.2875C0.479167 14.0958 0.716667 14 1 14H15C15.2833 14 15.5208 14.0958 15.7125 14.2875C15.9042 14.4792 16 14.7167 16 15C16 15.2833 15.9042 15.5208 15.7125 15.7125C15.5208 15.9042 15.2833 16 15 16H9V18C9 18.2833 8.90417 18.5208 8.7125 18.7125C8.52083 18.9042 8.28333 19 8 19ZM5 8.5C5.28333 8.5 5.52083 8.40417 5.7125 8.2125C5.90417 8.02083 6 7.78333 6 7.5C6 7.21667 5.90417 6.97917 5.7125 6.7875C5.52083 6.59583 5.28333 6.5 5 6.5C4.71667 6.5 4.47917 6.59583 4.2875 6.7875C4.09583 6.97917 4 7.21667 4 7.5C4 7.78333 4.09583 8.02083 4.2875 8.2125C4.47917 8.40417 4.71667 8.5 5 8.5ZM11 8.5C11.2833 8.5 11.5208 8.40417 11.7125 8.2125C11.9042 8.02083 12 7.78333 12 7.5C12 7.21667 11.9042 6.97917 11.7125 6.7875C11.5208 6.59583 11.2833 6.5 11 6.5C10.7167 6.5 10.4792 6.59583 10.2875 6.7875C10.0958 6.97917 10 7.21667 10 7.5C10 7.78333 10.0958 8.02083 10.2875 8.2125C10.4792 8.40417 10.7167 8.5 11 8.5ZM2 13C1.71667 13 1.47917 12.9042 1.2875 12.7125C1.09583 12.5208 1 12.2833 1 12V5.925C1 5.80833 1.00833 5.69583 1.025 5.5875C1.04167 5.47917 1.06667 5.375 1.1 5.275L2.45 1.35C2.58333 0.95 2.825 0.625 3.175 0.375C3.525 0.125 3.91667 0 4.35 0H11.65C12.0833 0 12.475 0.125 12.825 0.375C13.175 0.625 13.4167 0.95 13.55 1.35L14.9 5.275C14.9333 5.375 14.9583 5.47917 14.975 5.5875C14.9917 5.69583 15 5.80833 15 5.925V12C15 12.2833 14.9042 12.5208 14.7125 12.7125C14.5208 12.9042 14.2833 13 14 13C13.7167 13 13.4792 12.9042 13.2875 12.7125C13.0958 12.5208 13 12.2833 13 12V11H3V12C3 12.2833 2.90417 12.5208 2.7125 12.7125C2.52083 12.9042 2.28333 13 2 13ZM3.65 4H12.35L11.65 2H4.35L3.65 4Z" fill="#737373"/>
</svg>
