<svg width="20" height="20" viewBox="0 0 20 20" fill="none" xmlns="http://www.w3.org/2000/svg">
<path d="M2.66667 11.7647V18.8235C2.66667 19.1569 2.53867 19.4365 2.28267 19.6623C2.02667 19.8882 1.71022 20.0008 1.33333 20C0.956444 19.9992 0.64 19.8863 0.384 19.6612C0.128 19.4361 0 19.1569 0 18.8235V1.17647C0 0.843137 0.128 0.563922 0.384 0.338824C0.64 0.113726 0.956444 0.000784314 1.33333 0H10.9C11.2111 0 11.4889 0.0882352 11.7333 0.264706C11.9778 0.441176 12.1333 0.666667 12.2 0.941176L12.5333 2.35294H18.6667C19.0444 2.35294 19.3613 2.46588 19.6173 2.69176C19.8733 2.91765 20.0009 3.19686 20 3.52941V12.9412C20 13.2745 19.872 13.5541 19.616 13.78C19.36 14.0059 19.0436 14.1184 18.6667 14.1176H11.7667C11.4556 14.1176 11.1778 14.0294 10.9333 13.8529C10.6889 13.6765 10.5333 13.451 10.4667 13.1765L10.1333 11.7647H2.66667ZM12.8667 11.7647H17.3333V4.70588H11.4333C11.1222 4.70588 10.8444 4.61765 10.6 4.44118C10.3556 4.2647 10.2 4.03921 10.1333 3.7647L9.8 2.35294H2.66667V9.41176H11.2333C11.5444 9.41176 11.8222 9.5 12.0667 9.67647C12.3111 9.85294 12.4667 10.0784 12.5333 10.3529L12.8667 11.7647Z" fill="#999999"/>
</svg>
