<svg width="20" height="20" viewBox="0 0 20 20" fill="none" xmlns="http://www.w3.org/2000/svg">
<path d="M9.98854 15.7162L4.67565 18.9244C4.51953 19.0015 4.37463 19.0327 4.24096 19.0181C4.10826 19.0025 3.97897 18.9566 3.8531 18.8805C3.72626 18.8025 3.63063 18.6922 3.56624 18.5497C3.50184 18.4073 3.49598 18.2517 3.54867 18.0828L4.96252 12.0674L0.286295 8.01324C0.154571 7.90591 0.0677301 7.7776 0.0257734 7.62831C-0.0161833 7.47903 -0.00691375 7.33608 0.053582 7.19948C0.114078 7.06287 0.194576 6.95066 0.295077 6.86285C0.396554 6.77796 0.533157 6.72039 0.704887 6.69014L6.87545 6.15154L9.28162 0.455182C9.34797 0.294185 9.44359 0.178072 9.56848 0.106843C9.69338 0.0356143 9.8334 0 9.98854 0C10.1437 0 10.2842 0.0356143 10.4101 0.106843C10.5359 0.178072 10.6311 0.294185 10.6955 0.455182L13.1016 6.15154L19.2707 6.69014C19.4434 6.71942 19.5805 6.77747 19.682 6.86431C19.7835 6.95018 19.8645 7.0619 19.925 7.19948C19.9845 7.33608 19.9933 7.47903 19.9513 7.62831C19.9093 7.7776 19.8225 7.90591 19.6908 8.01324L15.0146 12.0674L16.4284 18.0828C16.483 18.2497 16.4777 18.4048 16.4123 18.5483C16.3469 18.6917 16.2508 18.802 16.124 18.8791C15.9991 18.9571 15.8698 19.0035 15.7361 19.0181C15.6034 19.0327 15.459 19.0015 15.3029 18.9244L9.98854 15.7162Z" fill="#FFCC00"/>
</svg>
