<svg width="20" height="18" viewBox="0 0 20 18" fill="none" xmlns="http://www.w3.org/2000/svg">
<path d="M2 16C1.45 16 0.979167 15.8042 0.5875 15.4125C0.195833 15.0208 0 14.55 0 14V2C0 1.45 0.195833 0.979167 0.5875 0.5875C0.979167 0.195833 1.45 0 2 0H18C18.55 0 19.0208 0.195833 19.4125 0.5875C19.8042 0.979167 20 1.45 20 2V7.175C20 7.40833 19.9208 7.60417 19.7625 7.7625C19.6042 7.92083 19.4083 8 19.175 8C18.675 8 18.1833 8.04583 17.7 8.1375C17.2167 8.22917 16.8 8.45 16.45 8.8L12.95 12.325L12.2 11.6C11.6167 11.0167 10.9167 10.7292 10.1 10.7375C9.28333 10.7458 8.58333 11.0417 8 11.625C7.46667 12.1583 7.17083 12.7375 7.1125 13.3625C7.05417 13.9875 7.18333 14.5917 7.5 15.175C7.6 15.3583 7.60417 15.5417 7.5125 15.725C7.42083 15.9083 7.28333 16 7.1 16H2ZM2 4V8H18V4H2ZM12.95 15.15L17.875 10.225C18.075 10.025 18.3125 9.92917 18.5875 9.9375C18.8625 9.94583 19.1 10.05 19.3 10.25C19.4833 10.45 19.5792 10.6833 19.5875 10.95C19.5958 11.2167 19.5 11.45 19.3 11.65L13.65 17.3C13.55 17.4 13.4417 17.475 13.325 17.525C13.2083 17.575 13.0833 17.6 12.95 17.6C12.8167 17.6 12.6917 17.575 12.575 17.525C12.4583 17.475 12.35 17.4 12.25 17.3L9.4 14.45C9.21667 14.2667 9.12083 14.0375 9.1125 13.7625C9.10417 13.4875 9.2 13.25 9.4 13.05C9.58333 12.8667 9.8125 12.775 10.0875 12.775C10.3625 12.775 10.6 12.8667 10.8 13.05L12.95 15.15Z" fill="#737373"/>
</svg>
