<svg width="22" height="22" viewBox="0 0 22 22" fill="none" xmlns="http://www.w3.org/2000/svg">
<path d="M14.1694 6.875C13.8531 6.875 13.5896 6.76958 13.3787 6.55875C13.1679 6.34792 13.0625 6.07887 13.0625 5.75162V1.12337C13.0625 0.796125 13.1698 0.527083 13.3843 0.31625C13.5988 0.105417 13.8646 0 14.1818 0H20.8918C21.2098 0 21.4738 0.105417 21.6838 0.31625C21.8937 0.527083 21.9991 0.796125 22 1.12337V5.75162C22 6.07979 21.8928 6.34883 21.6783 6.55875C21.4638 6.76958 21.1979 6.875 20.8808 6.875H14.1694ZM1.10687 11C0.790625 11 0.527083 10.8946 0.31625 10.6838C0.105417 10.4729 0 10.2117 0 9.9V1.1C0 0.788334 0.10725 0.527083 0.32175 0.31625C0.53625 0.105417 0.802083 0 1.11925 0H7.82925C8.14733 0 8.41133 0.105417 8.62125 0.31625C8.83117 0.527083 8.93658 0.788334 8.9375 1.1V9.9C8.9375 10.2117 8.83025 10.4729 8.61575 10.6838C8.40125 10.8946 8.13542 11 7.81825 11H1.10687ZM14.1694 22C13.8531 22 13.5896 21.8946 13.3787 21.6838C13.1679 21.4729 13.0625 21.2117 13.0625 20.9V12.1C13.0625 11.7883 13.1698 11.5271 13.3843 11.3162C13.5988 11.1054 13.8646 11 14.1818 11H20.8918C21.2098 11 21.4738 11.1054 21.6838 11.3162C21.8937 11.5271 21.9991 11.7883 22 12.1V20.9C22 21.2117 21.8928 21.4729 21.6783 21.6838C21.4638 21.8946 21.1979 22 20.8808 22H14.1694ZM1.10687 22C0.790625 22 0.527083 21.8946 0.31625 21.6838C0.105417 21.4729 0 21.2039 0 20.8766V16.2484C0 15.9211 0.10725 15.6521 0.32175 15.4412C0.53625 15.2304 0.802083 15.125 1.11925 15.125H7.82925C8.14733 15.125 8.41133 15.2304 8.62125 15.4412C8.83117 15.6521 8.93658 15.9211 8.9375 16.2484V20.8766C8.9375 21.2048 8.83025 21.4738 8.61575 21.6838C8.40125 21.8946 8.13542 22 7.81825 22H1.10687Z" fill="white"/>
</svg>
