<svg width="24" height="24" viewBox="0 0 24 24" fill="none" xmlns="http://www.w3.org/2000/svg">
<path d="M13.4613 24.0027H10.5387C9.98854 24.0027 9.50717 23.6245 9.38682 23.0915L8.68195 20.0141L6 21.699C5.53582 21.9912 4.9341 21.9225 4.53869 21.527L2.47565 19.464C2.28393 19.277 2.16225 19.0298 2.13095 18.7638C2.09966 18.4978 2.16065 18.2291 2.30373 18.0027L3.98854 15.3207L0.91118 14.6159C0.651422 14.5552 0.4199 14.4083 0.25441 14.1991C0.0889199 13.9899 -0.000762071 13.7307 4.87855e-06 13.464V10.5414C4.87855e-06 9.99122 0.378228 9.50985 0.91118 9.3895L3.98854 8.68463L2.30373 6.00268C2.16065 5.77627 2.09966 5.50759 2.13095 5.24159C2.16225 4.97559 2.28393 4.7284 2.47565 4.54137L4.53869 2.47833C4.9341 2.08291 5.53582 2.01415 6 2.30641L8.68195 3.99122L9.38682 0.91386C9.50717 0.380909 9.98854 0.00268555 10.5387 0.00268555H13.4613C14.0115 0.00268555 14.4928 0.380909 14.6132 0.91386L15.3181 3.99122L18 2.30641C18.4642 2.01415 19.0659 2.08291 19.4613 2.47833L21.5244 4.54137C21.9198 4.93678 21.9885 5.5385 21.6963 6.00268L20.0115 8.68463L23.0888 9.3895C23.6218 9.50985 24 9.99122 24 10.5414V13.464C24 14.0141 23.6218 14.4955 23.0888 14.6159L20.0115 15.3207L21.6963 18.0027C21.9885 18.4669 21.9198 19.0686 21.5244 19.464L19.4613 21.527C19.0659 21.9225 18.4642 21.9912 18 21.699L15.3181 20.0141L14.6132 23.0915C14.4928 23.6245 14.0115 24.0027 13.4613 24.0027ZM10.9685 22.2835H13.0315L14.1834 17.2634L18.5501 19.997L20.0115 18.5356L17.2779 14.1689L22.298 13.017V10.954L17.2779 9.80211L20.0115 5.43535L18.5501 3.97403L14.1834 6.70756L13.0315 1.6875H10.9685L9.81662 6.70756L5.44986 3.97403L3.98854 5.43535L6.72207 9.80211L1.70201 10.954V13.017L6.72207 14.1689L3.98854 18.5356L5.44986 19.997L9.81662 17.2634L10.9685 22.2835Z" fill="white"/>
<path d="M12.0011 16.2676C10.8612 16.2676 9.76801 15.8148 8.96198 15.0088C8.15595 14.2027 7.70313 13.1095 7.70312 11.9696C7.70313 10.8297 8.15595 9.73651 8.96198 8.93048C9.76801 8.12445 10.8612 7.67163 12.0011 7.67163C13.141 7.67163 14.2342 8.12445 15.0403 8.93048C15.8463 9.73651 16.2991 10.8297 16.2991 11.9696C16.2991 13.1095 15.8463 14.2027 15.0403 15.0088C14.2342 15.8148 13.141 16.2676 12.0011 16.2676ZM12.0011 9.39083C10.5742 9.39083 9.42232 10.5427 9.42232 11.9696C9.42232 13.3966 10.5742 14.5484 12.0011 14.5484C13.4281 14.5484 14.5799 13.3966 14.5799 11.9696C14.5799 10.5427 13.4281 9.39083 12.0011 9.39083Z" fill="white"/>
</svg>
